<svg id="Layer_1" data-name="Layer 1" xmlns="http://www.w3.org/2000/svg" viewBox="0 0 193.62 90"><defs><style>.cls-1{fill:#d1d3d4;}.cls-2{fill:#a7a9ac;}.cls-3{fill:#00a3e2;}</style></defs><title>Alta Avionics horizontal logo color</title><path class="cls-1" d="M26,14.89l-1.57-2.72-2,1.16L24,16.05C24.61,15.64,25.28,15.25,26,14.89Z" transform="translate(-2.19 -1.86)"/><path class="cls-1" d="M8.1,35,5.15,33.88l-.8,2.17,3,1.08C7.55,36.39,7.81,35.67,8.1,35Z" transform="translate(-2.19 -1.86)"/><path class="cls-1" d="M15.27,23.35l-2.42-2L11.37,23.1l2.41,2C14.26,24.52,14.75,23.93,15.27,23.35Z" transform="translate(-2.19 -1.86)"/><path class="cls-1" d="M38.91,10.61l-.54-3.1-2.28.4L36.63,11C37.38,10.85,38.15,10.72,38.91,10.61Z" transform="translate(-2.19 -1.86)"/><path class="cls-1" d="M65.22,16.05l1.57-2.72-2-1.16-1.57,2.72C63.9,15.25,64.56,15.64,65.22,16.05Z" transform="translate(-2.19 -1.86)"/><path class="cls-1" d="M75.4,25.12l2.41-2-1.49-1.77-2.41,2C74.42,23.93,74.92,24.52,75.4,25.12Z" transform="translate(-2.19 -1.86)"/><path class="cls-1" d="M81.87,37.13l2.95-1.08L84,33.88l-3,1.07C81.37,35.67,81.63,36.39,81.87,37.13Z" transform="translate(-2.19 -1.86)"/><path class="cls-1" d="M5.32,49.47c0-.39,0-.78,0-1.16H2.19v2.31H5.35C5.33,50.24,5.32,49.85,5.32,49.47Z" transform="translate(-2.19 -1.86)"/><path class="cls-1" d="M52.55,11l.54-3.09-2.28-.4-.54,3.1Q51.41,10.78,52.55,11Z" transform="translate(-2.19 -1.86)"/><path class="cls-1" d="M73.91,75.58l2.41,2,1.49-1.77-2.41-2C74.92,74.41,74.42,75,73.91,75.58Z" transform="translate(-2.19 -1.86)"/><path class="cls-1" d="M7.31,61.8l-3,1.08.8,2.17L8.1,64C7.81,63.26,7.55,62.54,7.31,61.8Z" transform="translate(-2.19 -1.86)"/><path class="cls-1" d="M50.27,88.32l.54,3.1,2.28-.4-.54-3.09Q51.41,88.16,50.27,88.32Z" transform="translate(-2.19 -1.86)"/><path class="cls-1" d="M63.22,84l1.57,2.72,2-1.16-1.57-2.72C64.56,83.29,63.9,83.68,63.22,84Z" transform="translate(-2.19 -1.86)"/><path class="cls-1" d="M83.83,48.31c0,.38,0,.77,0,1.16s0,.77,0,1.15H87V48.31Z" transform="translate(-2.19 -1.86)"/><path class="cls-1" d="M81.08,64l3,1.07.79-2.17L81.87,61.8C81.63,62.54,81.37,63.26,81.08,64Z" transform="translate(-2.19 -1.86)"/><path class="cls-1" d="M36.63,87.93,36.09,91l2.28.4.54-3.1C38.15,88.21,37.38,88.08,36.63,87.93Z" transform="translate(-2.19 -1.86)"/><path class="cls-1" d="M13.78,73.81l-2.41,2,1.48,1.77,2.42-2C14.75,75,14.26,74.41,13.78,73.81Z" transform="translate(-2.19 -1.86)"/><path class="cls-1" d="M24,82.88,22.39,85.6l2,1.16L26,84C25.28,83.68,24.61,83.29,24,82.88Z" transform="translate(-2.19 -1.86)"/><path class="cls-2" d="M33.47,15.54,31.18,9.23,29,10l2.3,6.31C32,16,32.74,15.78,33.47,15.54Z" transform="translate(-2.19 -1.86)"/><path class="cls-2" d="M22.54,21.39l-4.32-5.15-1.77,1.49,4.32,5.15C21.34,22.36,21.94,21.87,22.54,21.39Z" transform="translate(-2.19 -1.86)"/><path class="cls-2" d="M14.27,30.62,8.45,27.26l-1.16,2,5.82,3.35C13.47,31.94,13.86,31.28,14.27,30.62Z" transform="translate(-2.19 -1.86)"/><path class="cls-2" d="M57.88,16.33,60.18,10,58,9.23l-2.29,6.31C56.44,15.78,57.17,16,57.88,16.33Z" transform="translate(-2.19 -1.86)"/><path class="cls-2" d="M76.07,32.62l5.81-3.35-1.15-2-5.82,3.36C75.32,31.28,75.71,31.94,76.07,32.62Z" transform="translate(-2.19 -1.86)"/><path class="cls-2" d="M79.93,44.41l6.61-1.17L86.14,41l-6.61,1.17C79.69,42.88,79.82,43.64,79.93,44.41Z" transform="translate(-2.19 -1.86)"/><path class="cls-2" d="M9.64,42.13,3,41l-.4,2.28,6.61,1.17Q9.41,43.26,9.64,42.13Z" transform="translate(-2.19 -1.86)"/><path class="cls-2" d="M68.41,22.88l4.32-5.15L71,16.24l-4.32,5.15C67.24,21.87,67.84,22.36,68.41,22.88Z" transform="translate(-2.19 -1.86)"/><path class="cls-2" d="M44.59,13.76c.39,0,.77,0,1.16,0V7.07H43.43v6.72C43.82,13.78,44.2,13.76,44.59,13.76Z" transform="translate(-2.19 -1.86)"/><path class="cls-2" d="M9.25,54.52,2.64,55.69,3,58l6.6-1.17Q9.41,55.68,9.25,54.52Z" transform="translate(-2.19 -1.86)"/><path class="cls-2" d="M66.63,77.54,71,82.69l1.78-1.49-4.32-5.15C67.84,76.57,67.24,77.06,66.63,77.54Z" transform="translate(-2.19 -1.86)"/><path class="cls-2" d="M79.53,56.8,86.14,58l.4-2.28-6.61-1.17C79.82,55.29,79.69,56.05,79.53,56.8Z" transform="translate(-2.19 -1.86)"/><path class="cls-2" d="M55.71,83.39,58,89.7l2.18-.79-2.3-6.31C57.17,82.89,56.44,83.15,55.71,83.39Z" transform="translate(-2.19 -1.86)"/><path class="cls-2" d="M74.91,68.31l5.82,3.36,1.15-2-5.81-3.35C75.71,67,75.32,67.65,74.91,68.31Z" transform="translate(-2.19 -1.86)"/><path class="cls-2" d="M20.77,76.05,16.45,81.2l1.77,1.49,4.32-5.15C21.94,77.06,21.34,76.57,20.77,76.05Z" transform="translate(-2.19 -1.86)"/><path class="cls-2" d="M13.11,66.31,7.29,69.66l1.16,2,5.82-3.36C13.86,67.65,13.47,67,13.11,66.31Z" transform="translate(-2.19 -1.86)"/><path class="cls-2" d="M31.3,82.6,29,88.91l2.18.79,2.29-6.31C32.74,83.15,32,82.89,31.3,82.6Z" transform="translate(-2.19 -1.86)"/><path class="cls-2" d="M44.59,85.17c-.39,0-.77,0-1.16,0v6.72h2.32V85.14C45.36,85.15,45,85.17,44.59,85.17Z" transform="translate(-2.19 -1.86)"/><path class="cls-2" d="M93.68,64l5.91-12h.18l5.78,12h-2.89l-.74-1.69H97.21L96.46,64ZM98,60.33h3l-1.5-3.63Zm15,4.13h-.19l-5.48-12h2.93L113,58.76l2.76-6.35h2.71ZM123.18,64V52.41H126V64Zm8.33-5.8A6.47,6.47,0,0,1,132,55.8a5.87,5.87,0,0,1,1.31-2,5.47,5.47,0,0,1,1.89-1.3,6,6,0,0,1,4.54,0,6,6,0,0,1,1.92,1.32,5.63,5.63,0,0,1,1.28,2,6.48,6.48,0,0,1,.44,2.43,6.8,6.8,0,0,1-.3,2,6,6,0,0,1-.91,1.76,5.94,5.94,0,0,1-2.08,1.75,5.71,5.71,0,0,1-2.62.62,5.81,5.81,0,0,1-2.26-.45,5.88,5.88,0,0,1-1.9-1.31,6.07,6.07,0,0,1-1.31-2A6.36,6.36,0,0,1,131.51,58.22Zm2.85,0a3.74,3.74,0,0,0,.89,2.53,2.84,2.84,0,0,0,4.36,0,3.7,3.7,0,0,0,.88-2.53,3.75,3.75,0,0,0-.88-2.55,2.84,2.84,0,0,0-4.36,0A3.76,3.76,0,0,0,134.36,58.22ZM148.85,64V52h.27l7.23,6.77v-6.4h2.55v12h-.24l-7.25-6.77V64Zm16.26,0V52.41h2.77V64Zm17.62-7.93a5.75,5.75,0,0,0-1.52-1.16,3.69,3.69,0,0,0-1.62-.37,3.15,3.15,0,0,0-2.41,1,3.69,3.69,0,0,0-.94,2.61,3.58,3.58,0,0,0,.93,2.58,3.17,3.17,0,0,0,2.42,1,4.4,4.4,0,0,0,1.75-.37,6.59,6.59,0,0,0,1.75-1.1l-.17,3.08a6,6,0,0,1-1.63.77,6.25,6.25,0,0,1-1.84.26,5.84,5.84,0,0,1-2-.32,5.66,5.66,0,0,1-1.74-.94A6,6,0,0,1,174,61a6.37,6.37,0,0,1-.6-2.76,6.67,6.67,0,0,1,.44-2.42,5.91,5.91,0,0,1,3.24-3.32,6.23,6.23,0,0,1,2.35-.46,6.34,6.34,0,0,1,1.86.27,6.53,6.53,0,0,1,1.7.83Zm5.54,4.65a10.69,10.69,0,0,0,1.82.92,4.55,4.55,0,0,0,1.46.26,1.88,1.88,0,0,0,1.16-.32,1,1,0,0,0,.43-.81c0-.47-.51-1-1.55-1.6l-.38-.22-.79-.44a4.78,4.78,0,0,1-1.69-1.47,3.21,3.21,0,0,1-.56-1.85,2.89,2.89,0,0,1,1.06-2.29A4,4,0,0,1,192,52a6.53,6.53,0,0,1,1.33.15,11.62,11.62,0,0,1,1.61.44v2.72a9.27,9.27,0,0,0-1.6-.81,3.76,3.76,0,0,0-1.28-.29,1.5,1.5,0,0,0-.92.25.83.83,0,0,0-.33.69.86.86,0,0,0,.2.56,1.8,1.8,0,0,0,.6.49l1.36.75a7.35,7.35,0,0,1,2.29,1.74,3.16,3.16,0,0,1,.59,1.9,3.53,3.53,0,0,1-1.16,2.74,4.38,4.38,0,0,1-3.07,1,8.12,8.12,0,0,1-1.41-.13,12.5,12.5,0,0,1-1.67-.43Z" transform="translate(-2.19 -1.86)"/><path class="cls-3" d="M44.59,23.16l22.5,39h-45l22.5-39m0-21.3L3.38,73.24H85.8L44.59,1.86Z" transform="translate(-2.19 -1.86)"/><path class="cls-3" d="M175.34,20.42h-.4l-13.3,26.92h6.26l1.7-3.8h10.58l1.66,3.8h6.52l-13-26.92ZM171.4,39l3.47-8.17L178.26,39ZM114.83,20.42h-.4l-13.3,26.92h6.26l1.7-3.8h10.58l1.66,3.8h6.52l-13-26.92ZM110.89,39l3.47-8.17L117.75,39Zm54.66-17.81h-22.8v5.46h8.3V47.34h6.23V26.69h8.27V21.23Zm-29.56,0h-6.23V47.34h16.4v-5.6H136V21.23Z" transform="translate(-2.19 -1.86)"/></svg>